<mxfile host="app.diagrams.net" modified="2020-03-22T15:14:55.766Z" agent="Mozilla/5.0 (Macintosh; Intel Mac OS X 10_15_3) AppleWebKit/537.36 (KHTML, like Gecko) Chrome/80.0.3987.149 Safari/537.36" etag="LXX5WQOhaFHUmGt4rWPV" version="12.8.8" type="github">
  <diagram name="Page-1" id="aaaa8250-4180-3840-79b5-4cada1eebb92">
    <mxGraphModel dx="2036" dy="796" grid="1" gridSize="10" guides="1" tooltips="1" connect="1" arrows="1" fold="1" page="1" pageScale="1" pageWidth="850" pageHeight="1100" background="#ffffff" math="0" shadow="0">
      <root>
        <mxCell id="0" />
        <mxCell id="1" parent="0" />
        <mxCell id="fT-97VIXSCzDioIePppB-7" value="API Gateway" style="outlineConnect=0;fontColor=#232F3E;gradientColor=#F54749;gradientDirection=north;fillColor=#C7131F;strokeColor=#ffffff;dashed=0;verticalLabelPosition=bottom;verticalAlign=top;align=center;html=1;fontSize=12;fontStyle=0;aspect=fixed;shape=mxgraph.aws4.resourceIcon;resIcon=mxgraph.aws4.api_gateway;" parent="1" vertex="1">
          <mxGeometry x="400" y="592" width="78" height="78" as="geometry" />
        </mxCell>
        <mxCell id="4XQsXKFa4x00ZrDe4OuX-3" value="" style="edgeStyle=orthogonalEdgeStyle;rounded=0;orthogonalLoop=1;jettySize=auto;html=1;opacity=40;" edge="1" parent="1" source="fT-97VIXSCzDioIePppB-9" target="4XQsXKFa4x00ZrDe4OuX-1">
          <mxGeometry relative="1" as="geometry">
            <mxPoint x="599" y="750" as="targetPoint" />
          </mxGeometry>
        </mxCell>
        <mxCell id="fT-97VIXSCzDioIePppB-8" value="incomingDroplet&lt;br&gt;Lambda function" style="outlineConnect=0;fontColor=#232F3E;gradientColor=#F78E04;gradientDirection=north;fillColor=#D05C17;strokeColor=#ffffff;dashed=0;verticalLabelPosition=bottom;verticalAlign=top;align=center;html=1;fontSize=12;fontStyle=0;aspect=fixed;shape=mxgraph.aws4.resourceIcon;resIcon=mxgraph.aws4.lambda;" parent="1" vertex="1">
          <mxGeometry x="560" y="592" width="78" height="78" as="geometry" />
        </mxCell>
        <mxCell id="fT-97VIXSCzDioIePppB-9" value="Droplets DB&lt;br&gt;in DynamoDB" style="outlineConnect=0;fontColor=#232F3E;gradientColor=#4D72F3;gradientDirection=north;fillColor=#3334B9;strokeColor=#ffffff;dashed=0;verticalLabelPosition=bottom;verticalAlign=top;align=center;html=1;fontSize=12;fontStyle=0;aspect=fixed;shape=mxgraph.aws4.resourceIcon;resIcon=mxgraph.aws4.dynamodb;" parent="1" vertex="1">
          <mxGeometry x="720" y="592" width="78" height="78" as="geometry" />
        </mxCell>
        <mxCell id="fT-97VIXSCzDioIePppB-15" value="cov-erage.pfandzelter.com&lt;br&gt;Domain in R53" style="outlineConnect=0;fontColor=#232F3E;gradientColor=#945DF2;gradientDirection=north;fillColor=#5A30B5;strokeColor=#ffffff;dashed=0;verticalLabelPosition=bottom;verticalAlign=top;align=center;html=1;fontSize=12;fontStyle=0;aspect=fixed;shape=mxgraph.aws4.resourceIcon;resIcon=mxgraph.aws4.route_53;" parent="1" vertex="1">
          <mxGeometry x="240" y="720" width="78" height="78" as="geometry" />
        </mxCell>
        <mxCell id="fT-97VIXSCzDioIePppB-16" value="Website in S3" style="outlineConnect=0;fontColor=#232F3E;gradientColor=#60A337;gradientDirection=north;fillColor=#277116;strokeColor=#ffffff;dashed=0;verticalLabelPosition=bottom;verticalAlign=top;align=center;html=1;fontSize=12;fontStyle=0;aspect=fixed;shape=mxgraph.aws4.resourceIcon;resIcon=mxgraph.aws4.s3;" parent="1" vertex="1">
          <mxGeometry x="400" y="360" width="78" height="78" as="geometry" />
        </mxCell>
        <mxCell id="fT-97VIXSCzDioIePppB-17" value="CloudFront Distribution" style="outlineConnect=0;fontColor=#232F3E;gradientColor=#945DF2;gradientDirection=north;fillColor=#5A30B5;strokeColor=#ffffff;dashed=0;verticalLabelPosition=bottom;verticalAlign=top;align=center;html=1;fontSize=12;fontStyle=0;aspect=fixed;shape=mxgraph.aws4.resourceIcon;resIcon=mxgraph.aws4.cloudfront;" parent="1" vertex="1">
          <mxGeometry x="240" y="520" width="78" height="78" as="geometry" />
        </mxCell>
        <mxCell id="fT-97VIXSCzDioIePppB-18" value="" style="edgeStyle=orthogonalEdgeStyle;html=1;endArrow=block;elbow=vertical;startArrow=none;endFill=1;strokeColor=#545B64;rounded=0;" parent="1" source="fT-97VIXSCzDioIePppB-17" target="fT-97VIXSCzDioIePppB-7" edge="1">
          <mxGeometry width="100" relative="1" as="geometry">
            <mxPoint x="320" y="530" as="sourcePoint" />
            <mxPoint x="420" y="530" as="targetPoint" />
            <Array as="points" />
          </mxGeometry>
        </mxCell>
        <mxCell id="fT-97VIXSCzDioIePppB-19" value="" style="edgeStyle=orthogonalEdgeStyle;html=1;endArrow=block;elbow=vertical;startArrow=none;endFill=1;strokeColor=#545B64;rounded=0;" parent="1" source="fT-97VIXSCzDioIePppB-7" target="fT-97VIXSCzDioIePppB-8" edge="1">
          <mxGeometry width="100" relative="1" as="geometry">
            <mxPoint x="328" y="569" as="sourcePoint" />
            <mxPoint x="410" y="569" as="targetPoint" />
            <Array as="points" />
          </mxGeometry>
        </mxCell>
        <mxCell id="fT-97VIXSCzDioIePppB-20" value="" style="edgeStyle=orthogonalEdgeStyle;html=1;endArrow=block;elbow=vertical;startArrow=none;endFill=1;strokeColor=#545B64;rounded=0;" parent="1" source="fT-97VIXSCzDioIePppB-8" target="fT-97VIXSCzDioIePppB-9" edge="1">
          <mxGeometry width="100" relative="1" as="geometry">
            <mxPoint x="488" y="569" as="sourcePoint" />
            <mxPoint x="570" y="569" as="targetPoint" />
            <Array as="points" />
          </mxGeometry>
        </mxCell>
        <mxCell id="fT-97VIXSCzDioIePppB-21" value="App Client" style="outlineConnect=0;dashed=0;verticalLabelPosition=bottom;verticalAlign=top;align=center;html=1;shape=mxgraph.aws3.mobile_client;fillColor=#D2D3D3;gradientColor=none;" parent="1" vertex="1">
          <mxGeometry x="-68.75" y="670" width="40.5" height="63" as="geometry" />
        </mxCell>
        <mxCell id="fT-97VIXSCzDioIePppB-22" value="Web Client" style="outlineConnect=0;dashed=0;verticalLabelPosition=bottom;verticalAlign=top;align=center;html=1;shape=mxgraph.aws3.management_console;fillColor=#D2D3D3;gradientColor=none;" parent="1" vertex="1">
          <mxGeometry x="-80" y="527.5" width="63" height="63" as="geometry" />
        </mxCell>
        <mxCell id="fT-97VIXSCzDioIePppB-24" value="" style="edgeStyle=orthogonalEdgeStyle;html=1;endArrow=block;elbow=vertical;startArrow=none;endFill=1;strokeColor=#545B64;rounded=0;" parent="1" source="fT-97VIXSCzDioIePppB-15" target="fT-97VIXSCzDioIePppB-17" edge="1">
          <mxGeometry width="100" relative="1" as="geometry">
            <mxPoint x="328" y="569" as="sourcePoint" />
            <mxPoint x="410" y="569" as="targetPoint" />
            <Array as="points" />
          </mxGeometry>
        </mxCell>
        <mxCell id="fT-97VIXSCzDioIePppB-25" value="" style="edgeStyle=orthogonalEdgeStyle;html=1;endArrow=block;elbow=vertical;startArrow=none;endFill=1;strokeColor=#545B64;rounded=0;" parent="1" source="fT-97VIXSCzDioIePppB-17" target="fT-97VIXSCzDioIePppB-16" edge="1">
          <mxGeometry width="100" relative="1" as="geometry">
            <mxPoint x="289" y="730" as="sourcePoint" />
            <mxPoint x="289" y="608" as="targetPoint" />
            <Array as="points" />
          </mxGeometry>
        </mxCell>
        <mxCell id="fT-97VIXSCzDioIePppB-26" value="" style="edgeStyle=orthogonalEdgeStyle;html=1;endArrow=block;elbow=vertical;startArrow=none;endFill=1;strokeColor=#545B64;rounded=0;" parent="1" source="fT-97VIXSCzDioIePppB-22" target="fT-97VIXSCzDioIePppB-17" edge="1">
          <mxGeometry width="100" relative="1" as="geometry">
            <mxPoint x="289" y="730" as="sourcePoint" />
            <mxPoint x="289" y="608" as="targetPoint" />
            <Array as="points" />
          </mxGeometry>
        </mxCell>
        <mxCell id="fT-97VIXSCzDioIePppB-27" value="" style="edgeStyle=orthogonalEdgeStyle;html=1;endArrow=block;elbow=vertical;startArrow=none;endFill=1;strokeColor=#545B64;rounded=0;" parent="1" source="fT-97VIXSCzDioIePppB-21" target="fT-97VIXSCzDioIePppB-17" edge="1">
          <mxGeometry width="100" relative="1" as="geometry">
            <mxPoint x="-7" y="569" as="sourcePoint" />
            <mxPoint x="250" y="569" as="targetPoint" />
            <Array as="points">
              <mxPoint x="130" y="702" />
              <mxPoint x="130" y="559" />
            </Array>
          </mxGeometry>
        </mxCell>
        <mxCell id="4XQsXKFa4x00ZrDe4OuX-1" value="Export Lambda" style="outlineConnect=0;fontColor=#232F3E;gradientColor=#F78E04;gradientDirection=north;fillColor=#D05C17;strokeColor=#ffffff;dashed=0;verticalLabelPosition=bottom;verticalAlign=top;align=center;html=1;fontSize=12;fontStyle=0;aspect=fixed;shape=mxgraph.aws4.resourceIcon;resIcon=mxgraph.aws4.lambda;opacity=50;" vertex="1" parent="1">
          <mxGeometry x="720" y="840" width="78" height="78" as="geometry" />
        </mxCell>
        <mxCell id="4XQsXKFa4x00ZrDe4OuX-9" value="Website in S3" style="outlineConnect=0;fontColor=#232F3E;gradientColor=#60A337;gradientDirection=north;fillColor=#277116;strokeColor=#ffffff;dashed=0;verticalLabelPosition=bottom;verticalAlign=top;align=center;html=1;fontSize=12;fontStyle=0;aspect=fixed;shape=mxgraph.aws4.resourceIcon;resIcon=mxgraph.aws4.s3;opacity=50;" vertex="1" parent="1">
          <mxGeometry x="400" y="840" width="78" height="78" as="geometry" />
        </mxCell>
        <mxCell id="4XQsXKFa4x00ZrDe4OuX-10" value="" style="edgeStyle=orthogonalEdgeStyle;html=1;endArrow=block;elbow=vertical;startArrow=none;endFill=1;strokeColor=#545B64;rounded=0;opacity=50;" edge="1" parent="1" source="fT-97VIXSCzDioIePppB-17" target="4XQsXKFa4x00ZrDe4OuX-9">
          <mxGeometry width="100" relative="1" as="geometry">
            <mxPoint x="328" y="569" as="sourcePoint" />
            <mxPoint x="400" y="950" as="targetPoint" />
            <Array as="points">
              <mxPoint x="350" y="559" />
              <mxPoint x="350" y="880" />
            </Array>
          </mxGeometry>
        </mxCell>
        <mxCell id="4XQsXKFa4x00ZrDe4OuX-11" value="" style="edgeStyle=orthogonalEdgeStyle;rounded=0;orthogonalLoop=1;jettySize=auto;html=1;opacity=50;" edge="1" parent="1" source="4XQsXKFa4x00ZrDe4OuX-1" target="4XQsXKFa4x00ZrDe4OuX-12">
          <mxGeometry relative="1" as="geometry">
            <mxPoint x="769" y="680" as="sourcePoint" />
            <mxPoint x="580" y="910" as="targetPoint" />
          </mxGeometry>
        </mxCell>
        <mxCell id="4XQsXKFa4x00ZrDe4OuX-12" value="" style="shape=image;html=1;verticalAlign=top;verticalLabelPosition=bottom;labelBackgroundColor=#ffffff;imageAspect=0;aspect=fixed;image=https://cdn1.iconfinder.com/data/icons/anycolor-common-type-files-pack/512/csv_anycolor-128.png;opacity=50;" vertex="1" parent="1">
          <mxGeometry x="561.5" y="841.5" width="75" height="75" as="geometry" />
        </mxCell>
        <mxCell id="4XQsXKFa4x00ZrDe4OuX-13" value="" style="edgeStyle=orthogonalEdgeStyle;rounded=0;orthogonalLoop=1;jettySize=auto;html=1;opacity=50;" edge="1" parent="1" target="4XQsXKFa4x00ZrDe4OuX-9">
          <mxGeometry relative="1" as="geometry">
            <mxPoint x="570" y="879" as="sourcePoint" />
            <mxPoint x="646.5" y="889" as="targetPoint" />
          </mxGeometry>
        </mxCell>
      </root>
    </mxGraphModel>
  </diagram>
</mxfile>
